<svg xmlns="http://www.w3.org/2000/svg" viewBox="0 0 200 200">
  <!-- Background rounded rect with mint border -->
  <rect x="12" y="12" width="176" height="176" rx="30" fill="#0f172a" stroke="#5EEAD4" stroke-width="5"/>
 <linearGradient id="starGrad" x1="0" y1="1" x2="0.5" y2="1">
      <stop offset="0%" stop-color="#fcd34d"/>
      <stop offset="100%" stop-color="#ff9900"/>
  </linearGradient>
  <!-- star -->
    <g transform="translate(110 85) scale(1.5)">
      <polygon
        points="0,-9.2 2.85,-3.45 9.2,-2.5 4.6,1.95 5.7,8.35 0,5.35 -5.7,8.35 -4.6,1.95 -9.2,-2.5 -2.85,-3.45"
        fill="url(#starGrad)"
        stroke="#000"
        stroke-width="0.45"/>
    </g>
  <!-- ■ Queens squares (purple) — top right -->
  <g transform="translate(120 30) scale(0.7)">
      <rect x="5" y="5" width="17" height="17" rx="4" fill="#C084FC" opacity="0.7"/>
      <rect x="24" y="5" width="16" height="17" rx="4" fill="#C084FC" opacity="0.7"/>
      <rect x="24" y="24" width="16" height="16" rx="4" fill="#C084FC" opacity="0.7"/>
      <rect x="42" y="24" width="17" height="16" rx="4" fill="#C084FC" opacity="0.7"/>
      <rect x="42" y="42" width="17" height="17" rx="4" fill="#C084FC" opacity="0.7"/>

      <path d="M14,14 L32,14 L32,32 L50,32 L50,50"
            fill="none"
            stroke="#7C3AED"
            stroke-width="3"
            stroke-linecap="round"
            stroke-linejoin="round"
            stroke-dasharray="150"
            stroke-dashoffset="150">
      
      </path>

      <circle cx="13.5" cy="13.5" r="4" fill="#7C3AED" stroke="#1a1a1a" stroke-width="1.5"/>
      <circle cx="50.5" cy="50.5" r="4" fill="#A855F7" stroke="#1a1a1a" stroke-width="1.5"/>

      <text x="13.5" y="15.5" text-anchor="middle" font-size="6" font-weight="900" fill="#fff">1</text>
      <text x="50.5" y="52.5" text-anchor="middle" font-size="6" font-weight="900" fill="#fff">5</text>
    </g>
 
    <!-- green animated puzzle with circles restored -->
    <g transform="translate(39 50) scale(0.85)">
      <rect x="19" y="5" width="12" height="12" rx="2" fill="#14B8A6" opacity="0.6">
        <animate attributeName="opacity" values="0.6;1;1;0.6" keyTimes="0;0.3;0.5;1" dur="3.5s" begin="0.3s" repeatCount="indefinite"/>
        <animate attributeName="fill" values="#14B8A6;#0D9488;#0D9488;#14B8A6" keyTimes="0;0.3;0.5;1" dur="3.5s" begin="0.3s" repeatCount="indefinite"/>
      </rect>

      <rect x="33" y="5" width="12" height="12" rx="2" fill="#14B8A6" opacity="0.6">
        <animate attributeName="opacity" values="0.6;1;1;0.6" keyTimes="0;0.3;0.5;1" dur="3.5s" begin="0.6s" repeatCount="indefinite"/>
        <animate attributeName="fill" values="#14B8A6;#0D9488;#0D9488;#14B8A6" keyTimes="0;0.3;0.5;1" dur="3.5s" begin="0.6s" repeatCount="indefinite"/>
      </rect>

      <rect x="33" y="19" width="12" height="12" rx="2" fill="#14B8A6" opacity="0.6">
        <animate attributeName="opacity" values="0.6;1;1;0.6" keyTimes="0;0.3;0.5;1" dur="3.5s" begin="0.9s" repeatCount="indefinite"/>
        <animate attributeName="fill" values="#14B8A6;#0D9488;#0D9488;#14B8A6" keyTimes="0;0.3;0.5;1" dur="3.5s" begin="0.9s" repeatCount="indefinite"/>
      </rect>

      <rect x="33" y="33" width="12" height="12" rx="2" fill="#14B8A6" opacity="0.6">
        <animate attributeName="opacity" values="0.6;1;1;0.6" keyTimes="0;0.3;0.5;1" dur="3.5s" begin="1.2s" repeatCount="indefinite"/>
        <animate attributeName="fill" values="#14B8A6;#0D9488;#0D9488;#14B8A6" keyTimes="0;0.3;0.5;1" dur="3.5s" begin="1.2s" repeatCount="indefinite"/>
      </rect>

      <rect x="19" y="33" width="12" height="12" rx="2" fill="#14B8A6" opacity="0.6">
        <animate attributeName="opacity" values="0.6;1;1;0.6" keyTimes="0;0.3;0.5;1" dur="3.5s" begin="1.5s" repeatCount="indefinite"/>
        <animate attributeName="fill" values="#14B8A6;#0D9488;#0D9488;#14B8A6" keyTimes="0;0.3;0.5;1" dur="3.5s" begin="1.5s" repeatCount="indefinite"/>
      </rect>

      <circle cx="11" cy="11" r="5" fill="#10b981" stroke="#059669" stroke-width="1.5"/>
      <circle cx="25" cy="53" r="5" fill="#ef4444" stroke="#b91c1c" stroke-width="1.5"/>
    </g>


 <!-- crown -->
    <g transform="translate(145 150) scale(1.5)">
      <rect x="-7" y="8" width="14" height="3" rx="1"
            fill="#E11D48" stroke="#1a1a1a" stroke-width="1"/>
      <path d="M-6,8 L-8,-3 L-3,2 L0,-6 L3,2 L8,-3 L6,8 Z"
            fill="#FB7185" stroke="#1a1a1a" stroke-width="1"/>
    </g>

   <!-- moon moved a bit up -->
    <g transform="translate(30 120) scale(1.5)">
      <g transform="rotate(40 12 12)">
        <path
          d="M12,2.2 A9,9 0 0,1 10,21 A10.5,12.5 0 0,0 12,2.3"
          fill="#6366F1"
          stroke="#4338CA"
          stroke-width="1"
          stroke-linejoin="round"
          stroke-linecap="round"/>
      </g>
    </g>

   <!-- LOJË icon -->
    <g transform="translate(85 95) scale(1)">
      <rect x="7" y="22" width="12" height="12" rx="3" fill="#22C55E" stroke="#1a1a1a" stroke-width="1.5"/>
      <rect x="21" y="22" width="12" height="12" rx="3" fill="#22C55E" stroke="#1a1a1a" stroke-width="1.5"/>
      <rect x="35" y="22" width="12" height="12" rx="3" fill="#9CA3AF" stroke="#1a1a1a" stroke-width="1.5"/>
      <rect x="49" y="22" width="12" height="12" rx="3" fill="#EAB308" stroke="#1a1a1a" stroke-width="1.5"/>

      <text x="13" y="31" text-anchor="middle" font-size="8" font-weight="900" fill="#fff">L</text>
      <text x="27" y="31" text-anchor="middle" font-size="8" font-weight="900" fill="#fff">O</text>
      <text x="41" y="31" text-anchor="middle" font-size="8" font-weight="900" fill="#888">J</text>
      <text x="54" y="31" text-anchor="middle" font-size="8" font-weight="900" fill="#fff">&#203;</text>
    </g>
</svg>
