<svg xmlns="http://www.w3.org/2000/svg" viewBox="0 0 64 64" fill="none">
  <defs>
    <linearGradient id="ribbonLeft" x1="18" y1="6" x2="28" y2="30" gradientUnits="userSpaceOnUse">
      <stop offset="0" stop-color="#2563EB"/>
      <stop offset="1" stop-color="#60A5FA"/>
    </linearGradient>
    <linearGradient id="ribbonRight" x1="36" y1="6" x2="26" y2="30" gradientUnits="userSpaceOnUse">
      <stop offset="0" stop-color="#60A5FA"/>
      <stop offset="1" stop-color="#93C5FD"/>
    </linearGradient>
    <linearGradient id="medalGrad" x1="18" y1="18" x2="46" y2="50" gradientUnits="userSpaceOnUse">
      <stop offset="0" stop-color="#FCD34D"/>
      <stop offset="0.55" stop-color="#F59E0B"/>
      <stop offset="1" stop-color="#EA580C"/>
    </linearGradient>
    <linearGradient id="innerRing" x1="22" y1="24" x2="40" y2="42" gradientUnits="userSpaceOnUse">
      <stop offset="0" stop-color="#FEF3C7"/>
      <stop offset="1" stop-color="#FDE68A"/>
    </linearGradient>
    <linearGradient id="starGrad" x1="26" y1="26" x2="38" y2="40" gradientUnits="userSpaceOnUse">
      <stop offset="0" stop-color="#FFF7CC"/>
      <stop offset="1" stop-color="#FDE68A"/>
    </linearGradient>
  </defs>

  <!-- Ribbon -->
  <path d="M18 6L24 28H31L27 6Z" fill="url(#ribbonLeft)" stroke="#1D4ED8" stroke-width="1" stroke-linejoin="round"/>
  <path d="M37 28H40L46 6L36.8 6Z" fill="url(#ribbonRight)" stroke="#60A5FA" stroke-width="1" stroke-linejoin="round"/>

  <!-- Medal -->
  <circle cx="32" cy="38" r="16" fill="url(#medalGrad)" stroke="#D97706" stroke-width="1.3"/>
  <circle cx="32" cy="38" r="11.8" fill="none" stroke="url(#innerRing)" stroke-width="1.5" opacity="0.95"/>

  <!-- Highlight -->
  <path d="M25 28.5C23.5 30.5 22.4 33.6 22.2 37" stroke="white" stroke-opacity="0.45" stroke-width="2.2" stroke-linecap="round"/>

  <!-- Star -->
  <path
    d="M32 28.5L34.6 33.8L40.5 34.5L36.2 38.5L37.3 44.2L32 41.2L26.7 44.2L27.8 38.5L23.5 34.5L29.4 33.8Z"
    fill="url(#starGrad)" stroke="#F59E0B" stroke-width="0.8" stroke-linejoin="round"/>
</svg>
