<svg xmlns="http://www.w3.org/2000/svg" viewBox="0 0 48 48">
  <!-- Confetti dots -->
  <circle cx="8" cy="10" r="2.5" fill="#F59E0B"/>
  <circle cx="40" cy="8" r="2" fill="#3B82F6"/>
  <circle cx="6" cy="30" r="1.8" fill="#EC4899"/>
  <circle cx="42" cy="28" r="2.2" fill="#10B981"/>
  <circle cx="14" cy="6" r="1.5" fill="#8B5CF6"/>
  <circle cx="36" cy="40" r="2" fill="#F59E0B"/>
  <circle cx="10" cy="40" r="1.5" fill="#3B82F6"/>
  <!-- Party popper cone -->
  <path d="M14 38L24 18L30 24Z" fill="#F59E0B" stroke="#D97706" stroke-width="0.8"/>
  <path d="M14 38L24 18L19 28Z" fill="#FBBF24"/>
  <!-- Streamers -->
  <path d="M26 20C30 16 34 18 32 12" stroke="#EC4899" stroke-width="2" fill="none" stroke-linecap="round"/>
  <path d="M28 22C34 20 36 24 40 18" stroke="#3B82F6" stroke-width="2" fill="none" stroke-linecap="round"/>
  <path d="M24 16C26 10 22 8 28 6" stroke="#10B981" stroke-width="2" fill="none" stroke-linecap="round"/>
  <!-- Stars -->
  <path d="M34 32L35.5 35L38.5 35.5L36.5 37.5L37 40.5L34 39L31 40.5L31.5 37.5L29.5 35.5L32.5 35Z" fill="#8B5CF6"/>
</svg>
