<svg xmlns="http://www.w3.org/2000/svg" viewBox="0 0 48 48">
  <!-- Flame -->
  <path d="M20 38C20 38 22 42 24 44C26 42 28 38 28 38L26 36H22L20 38Z" fill="#F59E0B"/>
  <path d="M22 38C22 38 23 41 24 42C25 41 26 38 26 38L25 37H23L22 38Z" fill="#FBBF24"/>
  <!-- Body -->
  <path d="M18 32L20 12C20 12 22 4 24 4C26 4 28 12 28 12L30 32H18Z" fill="#E5E7EB" stroke="#9CA3AF" stroke-width="1"/>
  <path d="M20 12C20 12 22 4 24 4C26 4 28 12 28 12" fill="#D1D5DB"/>
  <!-- Window -->
  <circle cx="24" cy="18" r="4" fill="#3B82F6" stroke="#1D4ED8" stroke-width="0.8"/>
  <circle cx="23" cy="17" r="1.2" fill="#93C5FD" opacity="0.6"/>
  <!-- Fins -->
  <path d="M18 32L14 36L18 28Z" fill="#EF4444" stroke="#DC2626" stroke-width="0.5"/>
  <path d="M30 32L34 36L30 28Z" fill="#EF4444" stroke="#DC2626" stroke-width="0.5"/>
</svg>
