<svg xmlns="http://www.w3.org/2000/svg" viewBox="0 0 48 48">
  <!-- Sparkles -->
  <circle cx="12" cy="10" r="2" fill="#F59E0B"/>
  <circle cx="38" cy="14" r="1.5" fill="#3B82F6"/>
  <circle cx="36" cy="8" r="2" fill="#EC4899"/>
  <!-- Thumb -->
  <path d="M20 20L22 10C22 10 23 6 26 8C28 10 26 14 26 14H34C34 14 37 14 37 17C37 17 38 19 36 20C36 20 38 22 36 24C36 24 37 26 35 27C35 27 36 30 33 30H24L24 30" fill="#FBBF24" stroke="#D97706" stroke-width="1.2" stroke-linejoin="round"/>
  <!-- Fist -->
  <rect x="14" y="22" width="10" height="18" rx="4" fill="#FBBF24" stroke="#D97706" stroke-width="1.2"/>
  <line x1="14" y1="28" x2="24" y2="28" stroke="#D97706" stroke-width="0.6"/>
</svg>
