<svg xmlns="http://www.w3.org/2000/svg" viewBox="0 0 64 64">
  <rect x="4" y="4" width="56" height="56" rx="5" fill="#F3E8FF" stroke="#1a1a1a" stroke-width="2"/>
  <line x1="23" y1="5" x2="23" y2="59" stroke="#E9D5FF" stroke-width="1.2"/>
  <line x1="41" y1="5" x2="41" y2="59" stroke="#E9D5FF" stroke-width="1.2"/>
  <line x1="5" y1="23" x2="59" y2="23" stroke="#E9D5FF" stroke-width="1.2"/>
  <line x1="5" y1="41" x2="59" y2="41" stroke="#E9D5FF" stroke-width="1.2"/>
  <rect x="5" y="5" width="17" height="17" rx="4" fill="#C084FC" opacity="0.7"/>
  <rect x="24" y="5" width="16" height="17" rx="4" fill="#C084FC" opacity="0.7"/>
  <rect x="24" y="24" width="16" height="16" rx="4" fill="#C084FC" opacity="0.7"/>
  <rect x="42" y="24" width="17" height="16" rx="4" fill="#C084FC" opacity="0.7"/>
  <rect x="42" y="42" width="17" height="17" rx="4" fill="#C084FC" opacity="0.7"/>
  <path d="M14,14 L32,14 L32,32 L50,32 L50,50" fill="none" stroke="#7C3AED" stroke-width="3" stroke-linecap="round" stroke-linejoin="round" stroke-dasharray="150" stroke-dashoffset="150">
    <animate attributeName="stroke-dashoffset" values="150;0;0;-150" keyTimes="0;0.4;0.7;1" dur="2.5s" repeatCount="indefinite"/>
  </path>
  <circle cx="13.5" cy="13.5" r="4" fill="#7C3AED" stroke="#1a1a1a" stroke-width="1.5"/>
  <circle cx="50.5" cy="50.5" r="4" fill="#A855F7" stroke="#1a1a1a" stroke-width="1.5"/>
  <text x="13.5" y="15.5" text-anchor="middle" font-size="6" font-weight="900" fill="#fff">1</text>
  <text x="50.5" y="52.5" text-anchor="middle" font-size="6" font-weight="900" fill="#fff">5</text>
</svg>
